<?xml version="1.0" encoding="UTF-8"?>
<svg id="_レイヤー_1" data-name="レイヤー_1" xmlns="http://www.w3.org/2000/svg" version="1.1" viewBox="0 0 2711.999 1076.99">
  <!-- Generator: Adobe Illustrator 30.5.1, SVG Export Plug-In . SVG Version: 2.1.4 Build 3)  -->
  <g>
    <polygon points="545.102 1051.044 984.014 792.205 984.116 581.804 1007.061 581.631 1007.205 804.309 545.234 1076.99 83.331 804.618 83.023 276.324 545.122 0 1007.06 275.867 1007.195 431.138 984.199 431.519 984.257 288.331 545.176 26.014 106.192 288.336 106.182 792.032 545.102 1051.044" fill="#ffffff"/>
    <path d="M510.532,602.523c-77.58-23.723-111.34-107.016-75.741-178.192,13.765-27.522,29.864-52.22,47.259-78.328,27.14-40.733,48.575-83.276,63.228-129.598,15.372,48.036,35.818,88.248,62.098,127.947,18.041,27.137,35.543,52.979,49.406,82.266,21.757,45.962,16.217,98.156-16.151,136.373-31.052,36.663-81.913,54.267-130.1,39.532ZM475.94,443.981c5.906-25.332,15.866-48.093,25.718-72.379-17.561,24.134-34.176,48.451-44.914,76.235-19.207,49.698,5.174,104.168,54.415,121.27-35.7-30.388-45.966-79.034-35.22-125.126Z" fill="#ffffff"/>
    <polygon points="227.584 600.195 245.844 611.728 274.536 594.918 341.665 639.362 279.998 677.522 246.367 697.668 148.85 637.088 148.864 305.981 204.329 272.489 337.193 354.343 337.025 480.23 279.04 443.476 278.671 404.437 227.58 372.191 227.584 600.195" fill="#ffffff"/>
    <path d="M685.538,432.576c-9.918-25.559-21.485-47.742-37.614-70.234l-.385-139.003-102.397-63.139.423-92.175,181.741,108.588.16,321.373-36.264,23.612c5.15-32.356,4.729-59.714-5.664-89.022Z" fill="#ffffff"/>
    <path d="M532.374,690.041l.416,43.87-79.107-.069.705-42.556c.073-4.418-2.251-9.546-6.303-12.219l-195.2-128.796.524-94.235,61.383,40.661,107.162,70.646c20.507,30.114,48.956,49.69,83.791,59.925,15.181,4.46,26.418,40.546,26.629,62.773Z" fill="#ffffff"/>
    <polygon points="862.091 372.162 811.794 404.575 811.437 442.543 753.365 480.744 753.513 354.913 886.266 272.774 941.728 305.958 941.687 416.148 861.685 416.097 862.091 372.162" fill="#ffffff"/>
    <path d="M673.692,843.701c.003,8.181-9.544,12.002-14.171,10.818-7.809-1.998-10.906-9.195-9.273-18.597l-209.515.091c1.55,9.286-1.745,15.755-7.935,18.134-5.445,2.093-16.212-.994-16.224-8.95l-.142-94.139c-.008-5.583,6.214-11.479,10.584-12.175,5.807-.925,12.598,3.94,13.243,10.176l.958,9.262,208.636-.02.548-9.077c.276-4.565,5.917-9.927,10.483-10.319,4.867-.418,12.771,4.663,12.774,10.875l.035,93.922Z" fill="#ffffff"/>
    <path d="M999.705,561.211c-16.049,3.758-26.351-19.402-28.262-41.263l-29.887.161.123,31.02c8.334-.649,14.999,3.057,16.474,9.446,1.769,7.663-3.944,15.049-12.611,15.035l-91.735-.141c-7.358-.011-11.149-9.413-9.938-14.575,1.65-7.03,7.755-10.792,16.728-9.818l.038-88.547c-8.454,1.113-15.673-2.894-16.95-10.133-1.509-8.556,4.669-14.977,13.958-14.963l89.952.141c8.103.013,12.824,8.504,11.063,15.087s-8.5,10.616-16.984,9.645l-.063,30.28,29.837.122c1.894-20.013,11.471-43.081,26.93-41.414,31.544,3.4,32.504,102.616,1.328,109.917Z" fill="#ffffff"/>
    <path d="M1310.483,530.834c31.928-10.924,61.226-21.395,90.085-41.287-20.145-21.36-33.265-39.684-45.126-66.154l30.818-14.563c14.781,21.543,27.362,38.468,44.511,55.881,17.811-18.976,31.421-35.408,40.791-60.589l-116.783-.517c-15.514,60.161-43.976,113.498-88.906,157.251l-30.402-28.227c57.603-53.511,85.669-124.52,93.771-198.796l-87.022-.206.297-34.45,92.158-.126,5.558-47.53,37.429,1.682-4.083,45.936,180.202-.013-.128,35.045-185.295.003-4.955,36.495,146.059.589c22.393,28.182-18.243,84.081-46.231,116.912,27.793,18.465,58.645,28.74,94.317,38.638l-19.314,35.905c-38.84-12.807-72.415-27.833-106.675-48.109-32.098,21.807-65.729,38.147-103.69,49.131l-17.387-32.901Z" fill="#ffffff"/>
    <polygon points="941.487 596.998 941.485 636.92 843.729 697.937 748.322 639.314 815.127 594.623 844.707 611.32 864.471 597.4 941.487 596.998" fill="#ffffff"/>
    <path d="M2656.548,750.37c-.461,27.986-21.177,39.55-47.31,39.581l-58.545.07-.096-136.204,53.14-.038c9.85-.007,19.618,1.706,28.56,4.963,11.918,5.736,18.569,16.121,19.12,28.065.61,13.235-5.939,23.8-18.926,30.645,15.145,4.273,24.331,16.335,24.058,32.917ZM2608.836,707.552c9.739-.41,14.93-9.053,14.658-17.089-.278-8.211-6.72-15.046-16.415-15.287l-28.481-.707.019,34.355,30.219-1.273ZM2609.87,767.277c12.929-.225,19.157-10.182,18.529-20.273-.611-9.822-8.192-17.337-19.345-17.419l-30.459-.226-.058,38.464,31.333-.546Z" fill="#ffffff"/>
    <path d="M1691.623,792.645c-28.237.278-52.411-13.837-62.077-40.377-7.971-21.887-6.737-46.578,3.653-67.611,11.342-22.96,34.386-34.028,59.519-33.695,29.388.39,54.103,17.477,61.909,45.962,4.401,16.06,4.684,33.038.385,49.074-7.838,29.238-32.894,46.346-63.39,46.647ZM1724.624,699.524c-5.229-16.407-18.497-25.806-34.598-25.204-15.317.573-27.986,9.319-32.537,25.594-4.736,16.939-4.531,36.178,3.547,52.168,6.838,13.536,21.034,18.218,35.453,16.549,28.683-3.32,37.493-39.741,28.134-69.107Z" fill="#ffffff"/>
    <polygon points="1891.018 789.51 1863.356 789.983 1863.253 729.538 1805.54 729.521 1805.541 789.972 1777.923 789.775 1777.82 653.681 1805.438 653.769 1805.575 706.317 1863.206 706.585 1863.291 653.84 1890.909 653.782 1891.018 789.51" fill="#ffffff"/>
    <path d="M2665.861,502.255l-40.247-.122.459,57.252-33.074.949-.092-58.222-35.719-.014.027,59.504-35.445-.336.029-180.064,180.181.224.05,152.431c-2.087,12.463-8.628,20.336-19.914,25.367l-39.045,2.119-8.055-32.587,29.561-.794,1.284-25.706ZM2593.396,427.63l-.462-18.319-35.893-.44.97,19.26,35.385-.501ZM2666.233,427.703l-.575-18.42-39.964-.405.474,19.269,40.065-.444ZM2593.412,473.725l-.675-19.029-35.566.155.818,19.665,35.423-.791ZM2665.792,473.825l-.209-18.837-39.676.009.05,18.846,39.835-.018Z" fill="#ffffff"/>
    <path d="M2446.967,536.001c14.56-34.905,24.483-68.804,24.284-105.654l-.525-97.318,53.783-.64.413-22.947-52.634-.242-.43-31.175,53.718.081.592-25.564,35.829-.528,1.115,26.351,51.369-.176-.032-27.023,38.148-.178.597,26.772,54.669.887.023,30.208-54.733.388-.236,23.257,59.08.182-.215,31.996-204.176-.871-3.024,100.341c-1.061,35.193-13.468,66.663-30.549,98.61l-27.067-26.758ZM2614.539,332.198l.149-22.862-51.634-.161.881,23.197,50.603-.173Z" fill="#ffffff"/>
    <path d="M532.41,998.6l-131.082-77.349,51.831-31.279c1.154-9.239.875-16.549.084-29.267l79.486-.312-.319,138.207Z" fill="#ffffff"/>
    <polygon points="1570.809 715.742 1627.02 789.559 1592.236 790.14 1540.236 723.117 1539.706 790.098 1512.229 789.823 1512.126 653.669 1539.744 653.783 1540.24 712.276 1591.225 653.518 1624.681 653.792 1570.809 715.742" fill="#ffffff"/>
    <path d="M1772.795,559.775l-10.503-37.006,58.381-1.137.64-101.431-84.032-.64-.11-34.176,83.945.082.141-39.095c22.559-9.808,38.643-25.462,52.462-45.273l-120.192-.123.152-32.728,167.653.049c9.673,8.266,10.078,24.715,3.124,34.286-17.748,24.427-37.065,44.509-60.414,63.571l-.65,19.387,80.015.251-.086,34.088-80.531.554-1.015,107.184c-.154,16.246-13.039,30.911-28.813,31.17l-60.165.988Z" fill="#ffffff"/>
    <path d="M1460.02,653.899l27.623-.296-.607,91.891c-.117,17.675-10.191,34.311-25.661,41.424-14.278,6.565-29.572,7.129-44.965,4.398-23.022-4.084-40.39-23.279-40.517-47.445l-.473-89.995,27.962-.074.675,89.698c.118,15.727,12.648,25.284,26.853,25.631,15.767.386,28.681-10.443,28.75-27.2l.361-88.032Z" fill="#ffffff"/>
    <path d="M2500.116,654.473l27.875-.91-.567,88.643c-.112,17.578-9.072,36.22-25.016,44.002-19.982,9.752-45.168,8.844-64.485-1.981-13.103-7.342-20.834-23.882-20.93-38.874l-.587-91.551,27.317-.023.788,89.526c.138,15.642,12.083,25.258,26.539,25.9,15.1.67,28.48-9.191,28.572-25.669l.494-89.06Z" fill="#ffffff"/>
    <path d="M1618.787,562.925l-27.642-28.341c25.889-16.167,46.896-32.424,64.251-57.153l-55.188-37.649c11.681-31.12,19.985-60.475,25.094-93.182l-32.417-.368-.039-33.522,37.956-.186,9.444-62.336,38.77,6.006-8.211,57.222,64.069-.51c1.856,52.141-4.711,103.058-27.323,153.474l39.273,34.278-24.365,29.13-36.137-27.671c-20.841,25.262-40.394,44.484-67.535,60.807ZM1674.827,444.29c14.668-34.227,20.659-63.357,21.497-97.478l-31.697.116-18.671,79.172,28.871,18.19Z" fill="#ffffff"/>
    <polygon points="2166.117 730.297 2106.798 730.342 2106.911 767.203 2174.475 767.319 2174.432 789.997 2079.271 789.997 2079.311 653.898 2171.956 653.883 2172.071 676.122 2106.817 676.134 2106.887 707.69 2165.909 707.65 2166.117 730.297" fill="#ffffff"/>
    <path d="M2041.903,784.905c-26.583,14.514-58.349,8.664-80.691-9.329l12.987-21.625c13.315,13.192,28.96,17.83,46.15,13.745,6.848-1.628,11.552-7.646,12.046-14.009.475-6.123-3.343-13.231-9.915-15.82l-33.709-13.281c-14.645-5.77-23.109-19.746-22.88-34.146.234-14.713,8.706-27.993,22.989-34.221,22.319-9.732,47.089-6.321,67.744,8.761l-11.257,19.72c-20.211-15.823-49.413-13.542-51.012,2.164-.51,5.012,2.628,12.694,7.924,14.87l24.5,10.067c10.002,4.11,20.997,8.662,27.427,18.19,11.519,17.069,7.367,44.173-12.305,54.914Z" fill="#ffffff"/>
    <path d="M2394.778,769.615c-13.232,29.12-67.402,31.015-94.911,5.68l12.13-21.174c13.231,12.039,28.864,18.004,46.566,13.66,6.873-1.687,11.795-7.669,12.233-13.89.502-7.132-4.039-13.772-11.367-16.594l-30.011-11.561c-15.152-5.837-25.026-18.68-25.178-33.766-.151-15.023,7.766-29.312,22.612-35.714,22.851-9.853,48.46-6.14,68.508,9.078l-11.757,19.049c-20.124-16.243-50.402-13.067-51.681,2.716-.382,4.707,3.447,12.745,8.288,14.748l28.482,11.783c9.115,3.771,18.871,8.89,24.572,17.169,7.73,11.227,7.518,25.602,1.514,38.815Z" fill="#ffffff"/>
    <path d="M2146.014,563.457l-18.021-31.955c26.617-9.336,49.099-19.015,73.129-33.579-17.906-18.215-30.035-35.154-41.061-57.377,11.917-5.514,22.877-9.416,32.915-10.955l38.537,45.567c16.207-14.753,26.411-28.461,35.357-48.483l-125.97-.214.608-33.422,169.434.262c8.422,34.482-23.51,75.4-47.201,105.062l74.109,29.482-17.388,34.062c-31.844-8.267-60.594-21.553-88.885-38.812-27.187,16.886-52.079,28.774-85.565,40.363Z" fill="#ffffff"/>
    <polygon points="1362.522 653.981 1312.582 736.69 1312.591 789.88 1284.988 789.989 1284.723 737.361 1234.614 654.052 1266.801 653.47 1298.961 711.764 1331.527 653.428 1362.522 653.981" fill="#ffffff"/>
    <polygon points="862.633 257.861 753.346 325.559 754.124 192.784 862.633 257.861" fill="#ffffff"/>
    <polygon points="2251.936 789.535 2223.688 789.858 2223.685 676.304 2183.626 675.882 2183.705 653.959 2292.262 653.866 2292.922 676.044 2251.873 676.251 2251.936 789.535" fill="#ffffff"/>
    <path d="M2403.783,562.64l.157-167.544-24.31,31.962-15.57-39.766c32.927-41.367,53.849-84.855,66.383-137.168,13.557-.228,25.095,2.919,37.906,10.144-5.668,26.739-15.946,49.857-25.674,74.407l-.032,227.514-38.86.451Z" fill="#ffffff"/>
    <path d="M2322.353,369.342c-21.223,13.42-81.805,11.986-81.928-22.061l-.192-53.29-36.733-.046c-.973,36.32-11.923,67.168-39.472,92.79-11.331-4.347-22.913-11.693-33.367-21.021,21.01-18.894,33.047-39.536,34.446-66.324l1.927-36.89,110.937.273.208,72.271c.012,4.19,9.687,9.064,13.812,8.614,4.08-.444,11.17-6.452,11.864-10.751l4.246-26.299,28.894,14.031c.762,15.397.846,38.909-14.643,48.704Z" fill="#ffffff"/>
    <polygon points="2702.03 789.75 2674.644 790.075 2674.534 654.21 2701.979 653.654 2702.03 789.75" fill="#ffffff"/>
    <path d="M2031.06,548.578l-3.461,13.248-35.193-.681-.005-110.971,127.32-.106.408,98.356-89.068.154ZM2083.152,517.718l-.75-39.257-52.89.111.235,39.38,53.405-.234Z" fill="#ffffff"/>
    <path d="M341.49,793.045c19.159,25.043,38.987,54.125,17.435,71.705-9.348,7.625-23.549,8.356-34.098.668-23.081-16.82-2.896-49.288,16.663-72.373Z" fill="#ffffff"/>
    <polygon points="2134.017 339.716 1978.328 339.743 1977.637 309.397 2133.321 309.434 2134.017 339.716" fill="#ffffff"/>
    <polygon points="2118.335 386.39 1992.725 386.42 1993.069 356.777 2118.688 356.928 2118.335 386.39" fill="#ffffff"/>
    <polygon points="2119.516 292.224 1992.566 292.342 1992.905 262.224 2119.17 262.393 2119.516 292.224" fill="#ffffff"/>
    <polygon points="2119.52 431.883 1993.993 432.097 1993.079 403.091 2118.919 403.237 2119.52 431.883" fill="#ffffff"/>
    <path d="M743.462,797.33c11.1-4.859,22.314,1.358,26.188,11.041,4.003,10.005-.691,21.763-11.606,25.928-9.073,3.462-20.351-.074-25.166-9.496-4.744-9.283-1.181-22.323,10.585-27.473Z" fill="#ffffff"/>
    <path d="M1059.316,272.401c10.922-3.725,20.647,3.09,23.669,11.423,3.745,10.326-2.157,20.877-11.041,24.044-10.111,3.604-19.989-1.302-23.883-9.855-4.424-9.714-.365-21.649,11.256-25.613Z" fill="#ffffff"/>
    <path d="M15.883,370.362c11.159-1.699,19.868,5.979,21.478,14.518,2.104,11.154-4.997,20.728-15.972,22.212-8.995,1.216-18.607-4.352-20.949-14.566-2.118-9.235,3.482-20.344,15.443-22.165Z" fill="#ffffff"/>
    <path d="M846.178,88.37c10.504-.514,18.072,8.306,18.638,16.971.69,10.558-6.995,18.564-16.319,19.48-10.219,1.004-18.462-6.418-19.736-15.722-1.45-10.585,6.086-20.174,17.417-20.728Z" fill="#ffffff"/>
    <path d="M229.673,759.575c10.256-1.304,16.967,6.627,18.048,13.569,1.582,10.158-5.286,17.909-12.97,19.155-9.837,1.595-17.222-4.632-19.058-12.473-2.098-8.961,3.53-18.923,13.98-20.252Z" fill="#ffffff"/>
    <path d="M360.485,44.24c7.336-2.776,14.81,1.279,17.296,7.591,2.892,7.341-.229,15.479-7.213,18.47-7.146,3.061-15.619-.336-18.528-7.372-2.88-6.968.289-15.603,8.445-18.689Z" fill="#ffffff"/>
    <path d="M934.189,689.545c6.727-3.885,14.82-2.1,18.492,5.654,2.142,4.522,1.326,12.728-5.13,16.782-4.873,3.06-12.983,2.009-17.411-3.93-3.878-5.2-3.201-14.32,4.049-18.506Z" fill="#ffffff"/>
  </g>
  <path d="M404.951,431.867c9.918-25.559,21.485-47.742,37.614-70.234l.385-139.003,102.397-63.139-.423-92.175-181.741,108.588-.16,321.373,36.264,23.612c-5.15-32.356-4.729-59.714,5.664-89.022Z" fill="#ffffff"/>
  <path d="M558.115,689.333l-.416,43.87,79.107-.069-.705-42.556c-.073-4.418,2.251-9.546,6.303-12.219l195.2-128.796-.524-94.235-61.383,40.661-107.162,70.646c-20.507,30.114-48.956,49.69-83.791,59.925-15.181,4.46-26.418,40.546-26.629,62.773Z" fill="#ffffff"/>
  <polygon points="227.856 257.152 337.143 324.851 336.365 192.075 227.856 257.152" fill="#ffffff"/>
  <path d="M558.018,998.6l131.082-77.349-51.831-31.279c-1.154-9.239-.875-16.549-.084-29.267l-79.486-.312.319,138.207Z" fill="#ffffff"/>
  <path d="M378.036,750.404h-1.136v-20.326l51.743-33.248-86.972-57.468-62.532,38.312v43.156l25.761,13.651v15.923h-1.796c-6.912,0-12.516,5.604-12.516,12.516s5.603,12.516,12.516,12.516h74.932c6.912,0,12.516-5.604,12.516-12.516s-5.603-12.516-12.516-12.516Z" fill="#ffffff"/>
  <path d="M711.977,750.404h1.136s0-20.326,0-20.326l-51.743-33.248,86.972-57.468,62.532,38.312v43.156s-25.761,13.651-25.761,13.651v15.923s1.796,0,1.796,0c6.912,0,12.516,5.604,12.516,12.516s-5.603,12.516-12.516,12.516h-74.932c-6.912,0-12.516-5.604-12.516-12.516s5.603-12.516,12.516-12.516Z" fill="#ffffff"/>
  <path d="M912.251,124.942c14.585-.713,25.094,11.534,25.881,23.566.958,14.66-9.713,25.777-22.661,27.049-14.19,1.394-25.635-8.912-27.405-21.832-2.013-14.699,8.451-28.014,24.184-28.783Z" fill="#ffffff"/>
  <path d="M304.731.726c5.987-2.265,12.085,1.043,14.114,6.194,2.36,5.99-.187,12.631-5.886,15.072-5.832,2.498-12.746-.274-15.119-6.016-2.35-5.686.236-12.733,6.891-15.251Z" fill="#ffffff"/>
</svg>