<?xml version="1.0" encoding="UTF-8"?>
<svg xmlns="http://www.w3.org/2000/svg" viewBox="0 0 1090 1077">
  <g>
    <polygon points="545.102 1051.044 984.014 792.205 984.116 581.804 1007.061 581.631 1007.205 804.309 545.234 1076.99 83.331 804.618 83.023 276.324 545.122 0 1007.06 275.867 1007.195 431.138 984.199 431.519 984.257 288.331 545.176 26.014 106.192 288.336 106.182 792.032 545.102 1051.044" fill="#59a7bd"/>
    <path d="M510.532,602.523c-77.58-23.723-111.34-107.016-75.741-178.192,13.765-27.522,29.864-52.22,47.259-78.328,27.14-40.733,48.575-83.276,63.228-129.598,15.372,48.036,35.818,88.248,62.098,127.947,18.041,27.137,35.543,52.979,49.406,82.266,21.757,45.962,16.217,98.156-16.151,136.373-31.052,36.663-81.913,54.267-130.1,39.532ZM475.94,443.981c5.906-25.332,15.866-48.093,25.718-72.379-17.561,24.134-34.176,48.451-44.914,76.235-19.207,49.698,5.174,104.168,54.415,121.27-35.7-30.388-45.966-79.034-35.22-125.126Z" fill="#4394cc"/>
    <polygon points="227.584 600.195 245.844 611.728 274.536 594.918 341.665 639.362 279.998 677.522 246.367 697.668 148.85 637.088 148.864 305.981 204.329 272.489 337.193 354.343 337.025 480.23 279.04 443.476 278.671 404.437 227.58 372.191 227.584 600.195" fill="#59aea7"/>
    <path d="M685.538,432.576c-9.918-25.559-21.485-47.742-37.614-70.234l-.385-139.003-102.397-63.139.423-92.175,181.741,108.588.16,321.373-36.264,23.612c5.15-32.356,4.729-59.714-5.664-89.022Z" fill="#59aea7"/>
    <path d="M532.374,690.041l.416,43.87-79.107-.069.705-42.556c.073-4.418-2.251-9.546-6.303-12.219l-195.2-128.796.524-94.235,61.383,40.661,107.162,70.646c20.507,30.114,48.956,49.69,83.791,59.925,15.181,4.46,26.418,40.546,26.629,62.773Z" fill="#59aea7"/>
    <polygon points="862.091 372.162 811.794 404.575 811.437 442.543 753.365 480.744 753.513 354.913 886.266 272.774 941.728 305.958 941.687 416.148 861.685 416.097 862.091 372.162" fill="#4394cc"/>
    <path d="M673.692,843.701c.003,8.181-9.544,12.002-14.171,10.818-7.809-1.998-10.906-9.195-9.273-18.597l-209.515.091c1.55,9.286-1.745,15.755-7.935,18.134-5.445,2.093-16.212-.994-16.224-8.95l-.142-94.139c-.008-5.583,6.214-11.479,10.584-12.175,5.807-.925,12.598,3.94,13.243,10.176l.958,9.262,208.636-.02.548-9.077c.276-4.565,5.917-9.927,10.483-10.319,4.867-.418,12.771,4.663,12.774,10.875l.035,93.922Z" fill="#59aea7"/>
    <path d="M999.705,561.211c-16.049,3.758-26.351-19.402-28.262-41.263l-29.887.161.123,31.02c8.334-.649,14.999,3.057,16.474,9.446,1.769,7.663-3.944,15.049-12.611,15.035l-91.735-.141c-7.358-.011-11.149-9.413-9.938-14.575,1.65-7.03,7.755-10.792,16.728-9.818l.038-88.547c-8.454,1.113-15.673-2.894-16.95-10.133-1.509-8.556,4.669-14.977,13.958-14.963l89.952.141c8.103.013,12.824,8.504,11.063,15.087s-8.5,10.616-16.984,9.645l-.063,30.28,29.837.122c1.894-20.013,11.471-43.081,26.93-41.414,31.544,3.4,32.504,102.616,1.328,109.917Z" fill="#4394cc"/>
    <polygon points="941.487 596.998 941.485 636.92 843.729 697.937 748.322 639.314 815.127 594.623 844.707 611.32 864.471 597.4 941.487 596.998" fill="#4394cc"/>
    <path d="M532.41,998.6l-131.082-77.349,51.831-31.279c1.154-9.239.875-16.549.084-29.267l79.486-.312-.319,138.207Z" fill="#59aea7"/>
  </g>
</svg>
